<svg width="20" height="18" viewBox="0 0 20 18" fill="none" xmlns="http://www.w3.org/2000/svg">
<path fill-rule="evenodd" clip-rule="evenodd" d="M14.6771 18C17.4916 18 19.0485 15.7932 19.0485 13.0288C19.0485 10.2645 17.3289 8.08496 14.5963 8.08496C11.701 8.08496 10.1987 10.4067 10.1987 13.2473C10.1987 16.0117 11.8627 18 14.6771 18ZM14.6499 17.4537C16.5452 17.4537 17.6282 15.4604 17.6282 13.0015C17.6282 10.5426 16.5973 8.65856 14.6499 8.65856C12.3737 8.65856 11.6737 10.7065 11.6737 13.1654C11.6737 15.6243 12.6193 17.4537 14.6499 17.4537Z" fill="url(#paint0_linear_49_3)"/>
<path fill-rule="evenodd" clip-rule="evenodd" d="M4.62997 6.78963C4.19294 6.94439 3.52702 7.41785 3.9094 8.40116C3.9339 8.54297 3.94249 8.59274 3.9352 8.64005C3.93125 8.66567 3.92265 8.69058 3.9094 8.72893C3.80236 9.03872 1.70117 10.1493 1.18839 7.63636C0.915283 6.29797 1.53165 3.64632 4.43787 3.47151C4.54079 3.47151 4.6315 3.4691 4.72037 3.46674C5.26832 3.45222 5.74676 3.43953 8.59049 4.00359C8.6112 4.00875 8.63217 4.014 8.65342 4.01933C8.77098 4.04875 8.89789 4.0805 9.03282 4.11327C7.25735 4.14473 6.65125 5.87291 6.65125 7.17202V10.8867C6.65125 14.7927 8.91832 16.0764 10.5025 16.1857C10.2622 15.8798 10.0928 15.257 10.0382 14.9839C8.39935 14.3939 8.06246 12.1978 8.09889 11.2418C8.07158 9.88524 8.03334 7.00268 8.09889 5.779C8.16237 4.59371 8.74356 4.18408 9.05303 4.11817C10.0555 4.36089 11.4936 4.65521 12.8515 4.46792C14.8375 4.19399 15.5556 0.780515 13.0154 0.0430341C12.7422 -0.0298033 12.1089 -0.0681772 12.0048 0.425432C11.8923 0.958614 12.3566 0.999028 12.5784 0.999028C12.8483 0.999028 13.141 0.711033 13.3158 0.507374C13.4906 0.303712 13.8183 0.61663 13.8894 0.889771C14.1171 1.76382 14.026 3.58294 11.7316 3.6485C11.0749 3.64849 7.52639 3.37168 6.80956 3.31577C6.76121 3.312 6.72576 3.30923 6.70495 3.30762C0.34075 2.81597 0.341685 5.99752 0.368986 7.09008C0.42632 9.38447 3.01847 10.0946 4.22029 8.6743C4.93046 8.23727 5.0124 7.36322 4.62997 6.78963Z" fill="url(#paint1_linear_49_3)"/>
<defs>
<linearGradient id="paint0_linear_49_3" x1="14.6236" y1="8.08496" x2="14.6236" y2="18" gradientUnits="userSpaceOnUse">
<stop stop-color="#DCB7AF"/>
<stop offset="1" stop-color="#FED4BB"/>
</linearGradient>
<linearGradient id="paint1_linear_49_3" x1="7.50618" y1="6.2649e-08" x2="7.50618" y2="16.1857" gradientUnits="userSpaceOnUse">
<stop stop-color="#DCB7AF"/>
<stop offset="1" stop-color="#FED4BB"/>
</linearGradient>
</defs>
</svg>
