<svg width="94" height="90" viewBox="0 0 94 90" fill="none" xmlns="http://www.w3.org/2000/svg">
<path fill-rule="evenodd" clip-rule="evenodd" d="M71.5569 90C85.6294 90 93.4139 78.966 93.4139 65.1442C93.4139 51.3224 84.8157 40.4249 71.1529 40.4249C56.6764 40.4249 49.165 52.0334 49.165 66.2368C49.165 80.0585 57.4846 90 71.5569 90ZM71.4211 87.2686C80.8972 87.2686 86.3122 77.302 86.3122 65.0076C86.3122 52.7133 81.1581 43.2929 71.4211 43.2929C60.0399 43.2929 56.5398 53.5327 56.5398 65.8271C56.5398 78.1214 61.2679 87.2686 71.4211 87.2686Z" fill="url(#paint0_linear_45_1346)"/>
<path fill-rule="evenodd" clip-rule="evenodd" d="M21.3212 33.9481C19.1361 34.7219 15.8065 37.0893 17.7184 42.0058C17.8409 42.7149 17.8839 42.9637 17.8474 43.2002C17.8276 43.3283 17.7847 43.4529 17.7184 43.6446C17.1832 45.1936 6.67723 50.7463 4.11334 38.1818C2.7478 31.4899 5.82962 18.2316 20.3607 17.3575C20.8754 17.3575 21.3289 17.3455 21.7733 17.3337C24.513 17.2611 26.9052 17.1977 41.1239 20.0179C41.2274 20.0437 41.3323 20.07 41.4385 20.0966C42.0263 20.2437 42.6608 20.4025 43.3355 20.5663C34.4581 20.7236 31.4276 29.3645 31.4276 35.8601V54.4337C31.4276 73.9633 42.763 80.3821 50.6841 80.9284C49.4822 79.3988 48.6355 76.285 48.3624 74.9193C40.1681 71.9694 38.4837 60.9891 38.6659 56.2091C38.5293 49.4262 38.3381 35.0134 38.6659 28.895C38.9832 22.9685 41.8892 20.9204 43.4365 20.5908C48.4487 21.8044 55.6394 23.2761 62.4289 22.3396C72.3589 20.9699 75.9493 3.90257 63.2483 0.215171C61.8826 -0.149016 58.7161 -0.340886 58.1952 2.12716C57.6328 4.79307 59.9545 4.99514 61.0632 4.99514C62.4127 4.99514 63.8765 3.55517 64.7506 2.53687C65.6246 1.51856 67.2629 3.08315 67.6185 4.44886C68.7567 8.81911 68.3014 17.9147 56.8295 18.2425C53.5458 18.2425 35.8033 16.8584 32.2192 16.5788C31.9774 16.56 31.8002 16.5461 31.6961 16.5381C-0.124865 14.0798 -0.12019 29.9876 0.0163177 35.4504C0.302984 46.9223 13.2637 50.4732 19.2728 43.3715C22.8237 41.1864 23.2334 36.8161 21.3212 33.9481Z" fill="url(#paint1_linear_45_1346)"/>
<defs>
<linearGradient id="paint0_linear_45_1346" x1="71.2895" y1="40.4249" x2="71.2895" y2="90" gradientUnits="userSpaceOnUse">
<stop stop-color="#DCB7AF"/>
<stop offset="1" stop-color="#FED4BB"/>
</linearGradient>
<linearGradient id="paint1_linear_45_1346" x1="35.7023" y1="3.13245e-07" x2="35.7023" y2="80.9284" gradientUnits="userSpaceOnUse">
<stop stop-color="#DCB7AF"/>
<stop offset="1" stop-color="#FED4BB"/>
</linearGradient>
</defs>
</svg>
