<svg width="272" height="42" viewBox="0 0 272 42" fill="none" xmlns="http://www.w3.org/2000/svg">
<path d="M6.40239 38.0322V30.9601H8.83475C9.62054 30.9601 10.1956 31.1316 10.5599 31.4745C10.9314 31.8174 11.1171 32.2888 11.1171 32.8889C11.1171 33.2389 11.0207 33.564 10.8278 33.864C10.6349 34.164 10.3385 34.3533 9.93842 34.4319V34.4426C10.3527 34.5212 10.6813 34.7141 10.9242 35.0212C11.1671 35.3213 11.2885 35.6713 11.2885 36.0713C11.2885 36.6714 11.0742 37.15 10.6456 37.5072C10.2242 37.8572 9.62054 38.0322 8.83475 38.0322H6.40239ZM7.17389 37.3143H8.98477C9.47767 37.3143 9.84913 37.2071 10.0992 36.9928C10.3492 36.7714 10.4742 36.4642 10.4742 36.0713C10.4742 35.6713 10.3492 35.3641 10.0992 35.1498C9.84913 34.9355 9.47767 34.8284 8.98477 34.8284H7.17389V37.3143ZM7.17389 34.1104H8.82404C9.31694 34.1104 9.68483 34.0104 9.92771 33.8104C10.1777 33.6104 10.3027 33.3032 10.3027 32.8889C10.3027 32.4889 10.1777 32.1888 9.92771 31.9888C9.68483 31.7817 9.31694 31.6781 8.82404 31.6781H7.17389V34.1104ZM16.7949 38.0322V30.9601H21.5418V31.6781H17.5664V34.0783H20.6738V34.8069H17.5664V37.3143H21.6918V38.0322H16.7949ZM32.3886 38.0322H31.5635L30.8135 36.007H27.6846L26.9346 38.0322H26.1202L28.799 30.9601H29.7205L32.3886 38.0322ZM27.9525 35.2784H30.5456L29.2491 31.7102L27.9525 35.2784ZM42.379 30.9601V35.407C42.379 36.3142 42.1468 36.9964 41.6825 37.4536C41.2253 37.9108 40.5681 38.1394 39.7109 38.1394C38.868 38.1394 38.2143 37.9108 37.75 37.4536C37.2857 36.9964 37.0535 36.3142 37.0535 35.407V30.9601H37.825V35.2248C37.825 35.8963 37.9643 36.4321 38.2429 36.8321C38.5215 37.225 39.0108 37.4214 39.7109 37.4214C40.411 37.4214 40.9003 37.225 41.1789 36.8321C41.4646 36.4321 41.6075 35.8963 41.6075 35.2248V30.9601H42.379ZM52.9075 30.9601V31.6781H50.5073V38.0322H49.7358V31.6781H47.3356V30.9601H52.9075ZM62.6166 30.9601L60.1842 35.2677V38.0322H59.4127V35.2677L56.9911 30.9601H57.8912L59.2091 33.3818L59.7985 34.4747L60.3985 33.3818L61.7058 30.9601H62.6166ZM79.7703 36.2213C79.556 36.8285 79.2059 37.3 78.7202 37.6357C78.2416 37.9715 77.6737 38.1394 77.0165 38.1394C76.3807 38.1394 75.8235 37.9929 75.3449 37.7C74.8734 37.4 74.5091 36.9785 74.2519 36.4356C73.9948 35.8927 73.8662 35.2462 73.8662 34.4962C73.8662 33.7533 73.9948 33.1103 74.2519 32.5674C74.5091 32.0174 74.8734 31.5959 75.3449 31.303C75.8164 31.003 76.3664 30.853 76.995 30.853C77.4451 30.853 77.8415 30.9173 78.1844 31.0459C78.5345 31.1745 78.8309 31.3638 79.0738 31.6138C79.3238 31.8567 79.5167 32.1603 79.6524 32.5246L78.9023 32.8889C78.7523 32.4531 78.5273 32.1245 78.2273 31.9031C77.9273 31.6816 77.5344 31.5709 77.0486 31.5709C76.5771 31.5709 76.1628 31.6888 75.8056 31.9245C75.4485 32.1531 75.1699 32.4853 74.9698 32.921C74.7698 33.3568 74.6698 33.8818 74.6698 34.4962C74.6698 35.0962 74.7627 35.6177 74.9484 36.0606C75.1413 36.4964 75.4127 36.8321 75.7628 37.0678C76.1199 37.3036 76.5378 37.4214 77.0165 37.4214C77.5022 37.4214 77.9165 37.2964 78.2594 37.0464C78.6095 36.7964 78.8559 36.4249 78.9988 35.932L79.7703 36.2213ZM85.8146 37.3143H89.7257V38.0322H85.0431V30.9601H85.8146V37.3143ZM95.6002 30.9601V38.0322H94.8287V30.9601H95.6002ZM106.863 30.9601V38.0322H105.92L102.899 33.0818L102.245 31.8602H102.234L102.267 32.8782V38.0322H101.538V30.9601H102.481L105.492 35.8999L106.156 37.1428H106.167L106.135 36.1142V30.9601H106.863ZM113.57 30.9601V38.0322H112.799V30.9601H113.57ZM124.984 36.2213C124.769 36.8285 124.419 37.3 123.934 37.6357C123.455 37.9715 122.887 38.1394 122.23 38.1394C121.594 38.1394 121.037 37.9929 120.558 37.7C120.087 37.4 119.722 36.9785 119.465 36.4356C119.208 35.8927 119.079 35.2462 119.079 34.4962C119.079 33.7533 119.208 33.1103 119.465 32.5674C119.722 32.0174 120.087 31.5959 120.558 31.303C121.03 31.003 121.58 30.853 122.208 30.853C122.658 30.853 123.055 30.9173 123.398 31.0459C123.748 31.1745 124.044 31.3638 124.287 31.6138C124.537 31.8567 124.73 32.1603 124.866 32.5246L124.116 32.8889C123.966 32.4531 123.741 32.1245 123.441 31.9031C123.141 31.6816 122.748 31.5709 122.262 31.5709C121.79 31.5709 121.376 31.6888 121.019 31.9245C120.662 32.1531 120.383 32.4853 120.183 32.921C119.983 33.3568 119.883 33.8818 119.883 34.4962C119.883 35.0962 119.976 35.6177 120.162 36.0606C120.355 36.4964 120.626 36.8321 120.976 37.0678C121.333 37.3036 121.751 37.4214 122.23 37.4214C122.716 37.4214 123.13 37.2964 123.473 37.0464C123.823 36.7964 124.069 36.4249 124.212 35.932L124.984 36.2213Z" fill="#B3796C"/>
<path fill-rule="evenodd" clip-rule="evenodd" d="M41.6104 3.94204H44.6764V3.94205H48.3993C50.6974 3.94205 52.5604 5.80501 52.5604 8.10308C52.5604 10.0129 51.2737 11.6222 49.52 12.1115C51.7433 12.4881 53.4364 14.4232 53.4364 16.7536C53.4364 19.3541 51.3283 21.4622 48.7278 21.4622H43.8003L41.6104 21.4622V3.94204ZM44.6764 20.5027H46.2261C48.3456 20.5027 50.0639 18.7845 50.0639 16.665C50.0639 14.5454 48.3456 12.8272 46.2261 12.8272H44.6764V20.5027ZM44.6764 5.13094V11.4716H46.3241C48.075 11.4716 49.4944 10.0522 49.4944 8.30125C49.4944 6.55034 48.075 5.13094 46.3241 5.13094H44.6764Z" fill="#B3796C"/>
<path fill-rule="evenodd" clip-rule="evenodd" d="M102.055 3.9457L102.054 3.94574L109.939 21.4499L106.394 21.4499L103.728 15.3301H97.3087L94.749 21.4705L93.2944 21.4658L96.3605 14.3006V14.0161H96.4823L100.795 3.93737L102.055 3.9457ZM97.8565 14.0161H103.156L100.448 7.79977L97.8565 14.0161Z" fill="#B3796C"/>
<path fill-rule="evenodd" clip-rule="evenodd" d="M67.8904 3.9457L67.8902 3.94615L67.8906 3.94574L75.7746 21.4499L72.2301 21.4499L69.5642 15.3301H63.1447L60.585 21.4705L59.1304 21.4658L62.1964 14.3006V14.0161H62.3182L66.631 3.93737L67.8904 3.9457ZM63.6924 14.0161H68.9918L66.2839 7.7996L63.6924 14.0161Z" fill="#B3796C"/>
<path fill-rule="evenodd" clip-rule="evenodd" d="M26.2801 3.9457L26.2801 3.94574L34.1641 21.4499L30.6196 21.4499L27.9537 15.3301H21.5343L18.9746 21.4705L17.52 21.4658L20.5859 14.301V14.0161H20.7079L25.0206 3.93737L26.2801 3.9457ZM22.0821 14.0161H27.3813L24.6734 7.79977L22.0821 14.0161Z" fill="#B3796C"/>
<path fill-rule="evenodd" clip-rule="evenodd" d="M93.2945 3.94204H75.7744V5.25605H82.7827V21.4622H85.8487V5.25605H93.2945V3.94204Z" fill="#B3796C"/>
<path fill-rule="evenodd" clip-rule="evenodd" d="M17.5201 3.94204H0V5.25605H7.00804V21.4622H10.0741V5.25605H17.5201V3.94204Z" fill="#B3796C"/>
<path d="M26.4991 2.62802H24.7471L26.7181 0H28.6891L26.4991 2.62802Z" fill="#B3796C"/>
<rect x="224.258" y="2.19471" width="3.06602" height="17.5201" fill="#B3796C"/>
<rect x="172.135" y="2.19471" width="3.06602" height="17.5201" fill="#B3796C"/>
<path fill-rule="evenodd" clip-rule="evenodd" d="M238.274 2.19471H242.435C244.975 2.19471 247.034 4.25376 247.034 6.79374C247.034 9.33272 244.977 11.3912 242.438 11.3928H243.092C245.501 12.0498 247.691 17.0138 248.786 19.7148H246.158C243.968 13.8019 241.34 11.8308 238.712 11.8308V19.7149H235.646V2.19472H238.274V2.19471ZM238.712 3.50869H240.464C242.399 3.50869 243.968 5.07749 243.968 7.01271C243.968 8.94793 242.399 10.5167 240.464 10.5167H238.712V3.50869Z" fill="#B3796C"/>
<path fill-rule="evenodd" clip-rule="evenodd" d="M190.75 19.7148L190.75 19.7148L192.01 19.7231L199.51 2.19469L198.056 2.19005L192.357 15.8607L186.411 2.21058L182.866 2.21058L190.75 19.7148Z" fill="#B3796C"/>
<path fill-rule="evenodd" clip-rule="evenodd" d="M264.116 2.19837L264.116 2.19841L272 19.7026L268.456 19.7026L265.79 13.5828H259.37L256.811 19.7231L255.356 19.7185L258.422 12.5533V12.2688H258.544L262.857 2.19005L264.116 2.19837ZM259.918 12.2688H265.217L262.509 6.05245L259.918 12.2688Z" fill="#B3796C"/>
<path fill-rule="evenodd" clip-rule="evenodd" d="M209.803 2.19471H206.737V3.50872V10.0787H206.737V11.3927H206.737V18.4008H206.737V19.7148H206.737V19.7148H209.803V19.7148H217.249V18.4008H209.803V11.3927H214.621V10.0787H209.803V3.50872H217.249V2.19471H209.803Z" fill="#B3796C"/>
<path fill-rule="evenodd" clip-rule="evenodd" d="M155.929 2.19471H152.863V19.7148H155.929V19.7148H165.566V18.4008H155.929V2.19471Z" fill="#B3796C"/>
<path fill-rule="evenodd" clip-rule="evenodd" d="M136.103 19.7148C141.536 19.7148 144.541 15.8153 144.541 10.9306C144.541 6.04598 141.222 2.19471 135.947 2.19471C130.359 2.19471 127.459 6.29722 127.459 11.3168C127.459 16.2014 130.671 19.7148 136.103 19.7148ZM136.051 18.7495C139.709 18.7495 141.799 15.2272 141.799 10.8823C141.799 6.53741 139.81 3.20822 136.051 3.20822C131.657 3.20822 130.306 6.827 130.306 11.1719C130.306 15.5168 132.131 18.7495 136.051 18.7495Z" fill="#B3796C"/>
</svg>
